%TF.GenerationSoftware,KiCad,Pcbnew,7.0.11+dfsg-1build4*%
%TF.CreationDate,2026-09-29T23:48:06+00:00*%
%TF.ProjectId,tastatur,74617374-6174-4757-922e-6b696361645f,rev?*%
%TF.SameCoordinates,Original*%
%TF.FileFunction,Legend,Top*%
%TF.FilePolarity,Positive*%
%FSLAX46Y46*%
G04 Gerber Fmt 4.6, Leading zero omitted, Abs format (unit mm)*
G04 Created by KiCad (PCBNEW 7.0.11+dfsg-1build4) date 2026-09-29 23:48:06*
%MOMM*%
%LPD*%
G01*
G04 APERTURE LIST*
G04 Aperture macros list*
%AMFreePoly0*
4,1,63,2.824999,2.697104,2.484287,2.659532,2.151080,2.579094,1.830750,2.457087,1.528460,2.295479,1.499652,2.275000,3.859326,2.275000,3.859326,1.925000,1.062742,1.925000,0.997117,1.864470,0.776629,1.602017,0.591170,1.313743,0.477417,1.075000,5.151561,1.075000,5.151561,0.725000,0.351917,0.725000,0.336684,0.678660,0.271758,0.342086,0.250000,0.000000,0.257950,-0.124999,
5.353513,-0.124999,5.353513,-0.474999,0.297397,-0.474999,0.336684,-0.678660,0.443729,-1.004295,0.591170,-1.313743,0.598412,-1.325000,4.737980,-1.325000,4.737980,-1.675000,0.837942,-1.675000,0.997117,-1.864470,1.249081,-2.096873,1.528460,-2.295479,1.830750,-2.457087,2.151080,-2.579094,2.484287,-2.659532,2.824999,-2.697104,2.825000,-3.197557,2.418976,-3.155632,2.021592,-3.062361,
1.639315,-2.919264,1.278363,-2.728668,0.944611,-2.493674,0.643487,-2.218107,0.379892,-1.906449,0.158115,-1.563771,-0.018235,-1.195650,-0.146290,-0.808074,-0.223966,-0.407351,-0.250000,0.000000,-0.223966,0.407351,-0.146290,0.808074,-0.018235,1.195650,0.158115,1.563771,0.379892,1.906449,0.643487,2.218107,0.944611,2.493674,1.278363,2.728668,1.639315,2.919264,2.021592,3.062361,
2.418976,3.155632,2.824999,3.197557,2.824999,2.697104,2.824999,2.697104,$1*%
%AMFreePoly1*
4,1,63,-2.418976,3.155632,-2.021592,3.062361,-1.639315,2.919264,-1.278363,2.728668,-0.944611,2.493674,-0.643487,2.218107,-0.379892,1.906449,-0.158115,1.563771,0.018235,1.195650,0.146290,0.808074,0.223966,0.407351,0.250000,0.000000,0.223966,-0.407351,0.146290,-0.808074,0.018235,-1.195650,-0.158115,-1.563771,-0.379892,-1.906449,-0.643487,-2.218107,-0.944611,-2.493674,-1.278363,-2.728668,
-1.639315,-2.919264,-2.021592,-3.062361,-2.418976,-3.155632,-2.825000,-3.197557,-2.824999,-2.697104,-2.484287,-2.659532,-2.151080,-2.579094,-1.830750,-2.457087,-1.528460,-2.295479,-1.499652,-2.275000,-3.859326,-2.275000,-3.859326,-1.925000,-1.062742,-1.925000,-0.997117,-1.864470,-0.776629,-1.602017,-0.591170,-1.313743,-0.477417,-1.075000,-5.151561,-1.075000,-5.151561,-0.724999,-0.351917,-0.724999,
-0.336684,-0.678660,-0.271758,-0.342086,-0.250000,0.000000,-0.257950,0.125000,-5.353513,0.125000,-5.353513,0.475000,-0.297397,0.475000,-0.336684,0.678660,-0.443729,1.004295,-0.591170,1.313743,-0.598412,1.325000,-4.737980,1.325000,-4.737980,1.675000,-0.837942,1.675000,-0.997117,1.864470,-1.249081,2.096873,-1.528460,2.295479,-1.830750,2.457087,-2.151080,2.579094,-2.484287,2.659532,
-2.824999,2.697104,-2.824999,3.197557,-2.418976,3.155632,-2.418976,3.155632,$1*%
%AMFreePoly2*
4,1,58,1.874999,1.745530,1.658450,1.716346,1.447226,1.660404,1.244620,1.578575,1.053790,1.472137,0.921603,1.375000,2.599478,1.375000,2.599478,1.024999,0.581740,1.024999,0.580518,1.023510,0.464036,0.838639,0.371500,0.640694,0.304353,0.432761,0.263641,0.218080,0.260946,0.175000,3.489756,0.175000,3.489756,-0.175000,0.260946,-0.175000,0.263641,-0.218080,0.304353,-0.432761,
0.371500,-0.640694,0.464036,-0.838639,0.580518,-1.023510,0.581740,-1.024999,2.599478,-1.024999,2.599478,-1.375000,0.921603,-1.375000,1.053790,-1.472137,1.244620,-1.578575,1.447226,-1.660404,1.658450,-1.716346,1.875000,-1.745530,1.875000,-2.246525,1.593084,-2.212898,1.317648,-2.144037,1.053077,-2.041038,0.803582,-1.905540,0.573138,-1.739702,0.365412,-1.546164,0.183713,-1.328007,
0.030934,-1.088705,-0.090492,-0.832069,-0.178634,-0.562184,-0.232087,-0.283347,-0.250000,0.000000,-0.232087,0.283347,-0.178634,0.562184,-0.090492,0.832069,0.030934,1.088705,0.183713,1.328007,0.365412,1.546164,0.573138,1.739702,0.803582,1.905540,1.053077,2.041038,1.317648,2.144037,1.593084,2.212898,1.875000,2.246525,1.874999,1.745530,1.874999,1.745530,$1*%
%AMFreePoly3*
4,1,55,-1.593084,2.212898,-1.317648,2.144037,-1.053077,2.041038,-0.803582,1.905540,-0.573138,1.739702,-0.365412,1.546164,-0.183713,1.328007,-0.030934,1.088705,0.090492,0.832069,0.178634,0.562184,0.232087,0.283347,0.250000,0.000000,0.232087,-0.283347,0.178634,-0.562184,0.090492,-0.832069,-0.030934,-1.088705,-0.183713,-1.328007,-0.365412,-1.546164,-0.573138,-1.739702,-0.803582,-1.905540,
-1.053077,-2.041038,-1.317648,-2.144037,-1.593084,-2.212898,-1.875000,-2.246525,-1.875000,-1.745530,-1.658450,-1.716346,-1.447226,-1.660404,-1.244620,-1.578575,-1.053790,-1.472137,-0.877712,-1.342747,-0.719131,-1.192424,-0.580518,-1.023510,-0.464036,-0.838639,-0.434285,-0.774999,-3.284279,-0.774999,-3.284279,-0.425000,-0.302881,-0.425000,-0.263641,-0.218080,-0.250000,0.000000,-0.263641,0.218080,
-0.302881,0.425000,-3.284279,0.425000,-3.284279,0.774999,-0.434285,0.774999,-0.464036,0.838639,-0.580518,1.023510,-0.719131,1.192424,-0.877712,1.342747,-1.053790,1.472137,-1.244620,1.578575,-1.447226,1.660404,-1.658450,1.716346,-1.874999,1.745530,-1.875000,2.246525,-1.593084,2.212898,-1.593084,2.212898,$1*%
%AMFreePoly4*
4,1,62,2.735000,2.607004,2.406045,2.570218,2.084391,2.492093,1.775212,2.373886,1.590748,2.275000,3.487674,2.275000,3.487674,1.925000,1.105180,1.925000,0.970773,1.800812,0.758044,1.547217,0.579121,1.268736,0.486924,1.075000,4.960946,1.075000,4.960946,0.725000,0.356485,0.725000,0.333619,0.655365,0.270989,0.330339,0.250000,0.000000,0.257942,-0.124999,5.171703,-0.124999,
5.171703,-0.474999,0.298864,-0.474999,0.333619,-0.655365,0.436884,-0.969850,0.579121,-1.268736,0.615270,-1.325000,4.522520,-1.325000,4.522520,-1.675000,0.865235,-1.675000,0.970773,-1.800812,1.213889,-2.025443,1.483481,-2.217497,1.775212,-2.373886,2.084391,-2.492093,2.406045,-2.570218,2.735000,-2.607004,2.735000,-3.107486,2.340731,-3.066343,1.954898,-2.975380,1.583771,-2.836078,
1.233378,-2.650698,0.909413,-2.422253,0.617139,-2.154454,0.361303,-1.851652,0.146064,-1.518767,-0.025082,-1.161206,-0.149355,-0.784780,-0.224736,-0.395603,-0.250000,0.000000,-0.224736,0.395603,-0.149355,0.784780,-0.025082,1.161206,0.146064,1.518767,0.361303,1.851652,0.617139,2.154454,0.909413,2.422253,1.233378,2.650698,1.583771,2.836078,1.954898,2.975380,2.340731,3.066343,
2.734999,3.107486,2.735000,2.607004,2.735000,2.607004,$1*%
%AMFreePoly5*
4,1,62,-2.340731,3.066343,-1.954898,2.975380,-1.583771,2.836078,-1.233378,2.650698,-0.909413,2.422253,-0.617139,2.154454,-0.361303,1.851652,-0.146064,1.518767,0.025082,1.161206,0.149355,0.784780,0.224736,0.395603,0.250000,0.000000,0.224736,-0.395603,0.149355,-0.784780,0.025082,-1.161206,-0.146064,-1.518767,-0.361303,-1.851652,-0.617139,-2.154454,-0.909413,-2.422253,-1.233378,-2.650698,
-1.583771,-2.836078,-1.954898,-2.975380,-2.340731,-3.066343,-2.735000,-3.107486,-2.735000,-2.607004,-2.406045,-2.570218,-2.084391,-2.492093,-1.775212,-2.373886,-1.590748,-2.275000,-3.487674,-2.275000,-3.487674,-1.925000,-1.105180,-1.925000,-0.970773,-1.800812,-0.758044,-1.547217,-0.579121,-1.268736,-0.486924,-1.075000,-4.960946,-1.075000,-4.960946,-0.724999,-0.356484,-0.724999,-0.333619,-0.655365,
-0.270989,-0.330339,-0.250000,0.000000,-0.257942,0.125000,-5.171703,0.125000,-5.171703,0.475000,-0.298864,0.475000,-0.333619,0.655365,-0.436884,0.969850,-0.579121,1.268736,-0.615270,1.325000,-4.522520,1.325000,-4.522520,1.675000,-0.865235,1.675000,-0.970773,1.800812,-1.213889,2.025443,-1.483481,2.217497,-1.775212,2.373886,-2.084391,2.492093,-2.406045,2.570218,-2.735000,2.607004,
-2.734999,3.107486,-2.340731,3.066343,-2.340731,3.066343,$1*%
%AMFreePoly6*
4,1,58,2.024999,1.895883,1.788835,1.865357,1.558344,1.805531,1.337146,1.717343,1.128717,1.602180,0.936329,1.461849,0.844145,1.375000,3.062071,1.375000,3.062071,1.024999,0.554581,1.024999,0.484101,0.913663,0.382899,0.698109,0.309455,0.471588,0.264922,0.237661,0.260988,0.175000,3.790693,0.175000,3.790693,-0.175000,0.260988,-0.175000,0.264922,-0.237661,0.309455,-0.471588,
0.382899,-0.698109,0.484101,-0.913663,0.554581,-1.024999,3.062071,-1.024999,3.062071,-1.375000,0.844145,-1.375000,0.936329,-1.461849,1.128717,-1.602180,1.337146,-1.717343,1.558344,-1.805531,1.788835,-1.865357,2.025000,-1.895883,2.025000,-2.396742,1.723483,-2.361796,1.428788,-2.289072,1.145630,-2.179734,0.878537,-2.035529,0.631781,-1.858766,0.409310,-1.652271,0.214682,-1.419347,
0.051010,-1.163720,-0.079086,-0.889478,-0.173528,-0.601009,-0.230805,-0.302927,-0.250000,0.000000,-0.230805,0.302927,-0.173528,0.601009,-0.079086,0.889478,0.051010,1.163720,0.214682,1.419347,0.409310,1.652271,0.631781,1.858766,0.878537,2.035529,1.145630,2.179734,1.428788,2.289072,1.723483,2.361796,2.024999,2.396742,2.024999,1.895883,2.024999,1.895883,$1*%
%AMFreePoly7*
4,1,55,-1.723483,2.361796,-1.428788,2.289072,-1.145630,2.179734,-0.878537,2.035529,-0.631781,1.858766,-0.409310,1.652271,-0.214682,1.419347,-0.051010,1.163720,0.079086,0.889478,0.173528,0.601009,0.230805,0.302927,0.250000,0.000000,0.230805,-0.302927,0.173528,-0.601009,0.079086,-0.889478,-0.051010,-1.163720,-0.214682,-1.419347,-0.409310,-1.652271,-0.631781,-1.858766,-0.878537,-2.035529,
-1.145630,-2.179734,-1.428788,-2.289072,-1.723483,-2.361796,-2.025000,-2.396742,-2.025000,-1.895883,-1.788835,-1.865357,-1.558344,-1.805531,-1.337146,-1.717343,-1.128717,-1.602180,-0.936329,-1.461849,-0.763006,-1.298556,-0.611470,-1.114866,-0.484101,-0.913663,-0.418999,-0.774999,-3.606665,-0.774999,-3.606665,-0.425000,-0.300586,-0.425000,-0.264922,-0.237661,-0.250000,0.000000,-0.264922,0.237661,
-0.300586,0.425000,-3.606665,0.425000,-3.606665,0.774999,-0.418999,0.774999,-0.484101,0.913663,-0.611470,1.114866,-0.763006,1.298556,-0.936329,1.461849,-1.128717,1.602180,-1.337146,1.717343,-1.558344,1.805531,-1.788835,1.865357,-2.024999,1.895883,-2.024999,2.396742,-1.723483,2.361796,-1.723483,2.361796,$1*%
%AMFreePoly8*
4,1,58,2.074999,1.945989,1.832298,1.915018,1.595385,1.853898,1.367991,1.763593,1.207195,1.675000,2.490473,1.675000,2.490473,1.325000,0.770254,1.325000,0.621789,1.145316,0.490790,0.938670,0.386700,0.717246,0.311156,0.484531,0.309339,0.475000,3.832291,0.475000,3.832291,0.125000,0.257857,0.125000,0.250000,0.000000,0.265349,-0.244187,0.311156,-0.484531,0.386700,-0.717246,
0.390345,-0.724999,3.516956,-0.724999,3.516956,-1.075000,0.577214,-1.075000,0.621789,-1.145316,0.777634,-1.333932,0.955871,-1.501547,1.153695,-1.645523,1.367991,-1.763593,1.595385,-1.853898,1.832298,-1.915018,2.075000,-1.945989,2.075000,-2.446809,1.766949,-2.411424,1.465836,-2.337413,1.176482,-2.225963,0.903522,-2.078857,0.651330,-1.898452,0.423943,-1.687638,0.225006,-1.449792,
0.057703,-1.188724,-0.075284,-0.908615,-0.171826,-0.613951,-0.230378,-0.309454,-0.250000,0.000000,-0.230378,0.309454,-0.171826,0.613951,-0.075284,0.908615,0.057703,1.188724,0.225006,1.449792,0.423943,1.687638,0.651330,1.898452,0.903522,2.078857,1.176482,2.225963,1.465836,2.337413,1.766949,2.411424,2.074999,2.446809,2.074999,1.945989,2.074999,1.945989,$1*%
%AMFreePoly9*
4,1,58,-1.766949,2.411424,-1.465836,2.337413,-1.176482,2.225963,-0.903522,2.078857,-0.651330,1.898452,-0.423943,1.687638,-0.225006,1.449792,-0.057703,1.188724,0.075284,0.908615,0.171826,0.613951,0.230378,0.309454,0.250000,0.000000,0.230378,-0.309454,0.171826,-0.613951,0.075284,-0.908615,-0.057703,-1.188724,-0.225006,-1.449792,-0.423943,-1.687638,-0.651330,-1.898452,-0.903522,-2.078857,
-1.176482,-2.225963,-1.465836,-2.337413,-1.766949,-2.411424,-2.075000,-2.446809,-2.075000,-1.945989,-1.832298,-1.915018,-1.595385,-1.853898,-1.367991,-1.763593,-1.207195,-1.675000,-2.490473,-1.675000,-2.490473,-1.325000,-0.770254,-1.325000,-0.621789,-1.145316,-0.490790,-0.938670,-0.386700,-0.717246,-0.311156,-0.484531,-0.309339,-0.474999,-3.832291,-0.474999,-3.832291,-0.124999,-0.257857,-0.124999,
-0.250000,0.000000,-0.265349,0.244187,-0.311156,0.484531,-0.386700,0.717246,-0.390345,0.725000,-3.516956,0.725000,-3.516956,1.075000,-0.577214,1.075000,-0.621789,1.145316,-0.777634,1.333932,-0.955871,1.501547,-1.153695,1.645523,-1.367991,1.763593,-1.595385,1.853898,-1.832298,1.915018,-2.074999,1.945989,-2.074999,2.446809,-1.766949,2.411424,-1.766949,2.411424,$1*%
%AMFreePoly10*
4,1,61,2.524999,2.396742,2.223483,2.361796,1.928788,2.289072,1.645630,2.179734,1.378537,2.035529,1.294039,1.974999,3.499632,1.974999,3.499632,1.624999,0.886522,1.624999,0.714682,1.419347,0.551010,1.163720,0.420913,0.889478,0.383434,0.774999,4.655461,0.774999,4.655461,0.424999,0.292650,0.424999,0.269194,0.302927,0.250000,0.000000,0.269194,-0.302927,0.292651,-0.425000,
4.655461,-0.425000,4.655461,-0.775000,0.383434,-0.775000,0.420913,-0.889478,0.551010,-1.163720,0.714682,-1.419347,0.886523,-1.625000,3.499632,-1.625000,3.499632,-1.975000,1.294040,-1.975000,1.378537,-2.035529,1.645630,-2.179734,1.928788,-2.289072,2.223483,-2.361796,2.525000,-2.396742,2.524999,-2.897304,2.158160,-2.857987,1.799282,-2.772414,1.454172,-2.641968,1.128417,-2.468762,
0.827289,-2.255599,0.555662,-2.005928,0.317932,-1.723792,0.117946,-1.413755,-0.041057,-1.080837,-0.156506,-0.730426,-0.226531,-0.368192,-0.250000,0.000000,-0.226531,0.368192,-0.156506,0.730426,-0.041057,1.080837,0.117946,1.413755,0.317932,1.723792,0.555662,2.005928,0.827289,2.255599,1.128417,2.468762,1.454172,2.641968,1.799282,2.772414,2.158160,2.857987,2.524999,2.897304,
2.524999,2.396742,2.524999,2.396742,$1*%
%AMFreePoly11*
4,1,60,-2.158160,2.857987,-1.799282,2.772414,-1.454172,2.641968,-1.128417,2.468762,-0.827289,2.255599,-0.555662,2.005928,-0.317932,1.723792,-0.117946,1.413755,0.041057,1.080837,0.156506,0.730426,0.226531,0.368192,0.250000,0.000000,0.226531,-0.368192,0.156506,-0.730426,0.041057,-1.080837,-0.117946,-1.413755,-0.317932,-1.723792,-0.555662,-2.005928,-0.827289,-2.255599,-1.128417,-2.468762,
-1.454172,-2.641968,-1.799282,-2.772414,-2.158160,-2.857987,-2.524999,-2.897304,-2.525000,-2.396742,-2.223483,-2.361796,-1.928788,-2.289072,-1.645630,-2.179734,-1.378537,-2.035529,-1.131781,-1.858766,-0.909310,-1.652271,-0.714682,-1.419347,-0.686288,-1.375000,-4.302838,-1.375000,-4.302838,-1.025000,-0.485203,-1.025000,-0.420913,-0.889478,-0.326471,-0.601009,-0.269194,-0.302927,-0.261088,-0.175000,
-4.792866,-0.175000,-4.792866,0.174999,-0.261088,0.174999,-0.269194,0.302927,-0.326471,0.601009,-0.420913,0.889478,-0.485202,1.024999,-4.302838,1.024999,-4.302838,1.374999,-0.686287,1.374999,-0.714682,1.419347,-0.909310,1.652271,-1.131781,1.858766,-1.378537,2.035529,-1.645630,2.179734,-1.928788,2.289072,-2.223483,2.361796,-2.524999,2.396742,-2.524999,2.897304,-2.158160,2.857987,
-2.158160,2.857987,$1*%
%AMFreePoly12*
4,1,62,2.775000,2.647050,2.440819,2.609914,2.114031,2.530761,1.799896,2.410865,1.546137,2.275000,3.664444,2.275000,3.664444,1.925000,1.086350,1.925000,0.982482,1.829104,0.766303,1.571572,0.584476,1.288739,0.482704,1.075000,5.045780,1.075000,5.045780,0.725000,0.354457,0.725000,0.334981,0.665718,0.271331,0.335560,0.250000,0.000000,0.257946,-0.124999,5.252525,-0.124999,
5.252525,-0.474999,0.298213,-0.474999,0.334981,-0.665718,0.439926,-0.985159,0.584476,-1.288739,0.607787,-1.325000,4.618829,-1.325000,4.618829,-1.675000,0.853123,-1.675000,0.982482,-1.829104,1.229530,-2.057190,1.503471,-2.252156,1.799896,-2.410865,2.114031,-2.530761,2.440819,-2.609914,2.775000,-2.647050,2.775000,-3.147518,2.375506,-3.106027,1.984540,-3.014039,1.608457,-2.873050,
1.253372,-2.685352,0.925056,-2.453996,0.628849,-2.182744,0.369565,-1.876006,0.151420,-1.538769,-0.022039,-1.176515,-0.147993,-0.795133,-0.224394,-0.400825,-0.250000,0.000000,-0.224394,0.400825,-0.147993,0.795133,-0.022039,1.176515,0.151420,1.538769,0.369565,1.876006,0.628849,2.182744,0.925056,2.453996,1.253372,2.685352,1.608457,2.873050,1.984540,3.014039,2.375506,3.106027,
2.774999,3.147518,2.775000,2.647050,2.775000,2.647050,$1*%
%AMFreePoly13*
4,1,62,-2.375506,3.106027,-1.984540,3.014039,-1.608457,2.873050,-1.253372,2.685352,-0.925056,2.453996,-0.628849,2.182744,-0.369565,1.876006,-0.151420,1.538769,0.022039,1.176515,0.147993,0.795133,0.224394,0.400825,0.250000,0.000000,0.224394,-0.400825,0.147993,-0.795133,0.022039,-1.176515,-0.151420,-1.538769,-0.369565,-1.876006,-0.628849,-2.182744,-0.925056,-2.453996,-1.253372,-2.685352,
-1.608457,-2.873050,-1.984540,-3.014039,-2.375506,-3.106027,-2.775000,-3.147518,-2.775000,-2.647050,-2.440819,-2.609914,-2.114031,-2.530761,-1.799896,-2.410865,-1.546137,-2.275000,-3.664444,-2.275000,-3.664444,-1.925000,-1.086350,-1.925000,-0.982482,-1.829104,-0.766303,-1.571572,-0.584476,-1.288739,-0.482704,-1.075000,-5.045780,-1.075000,-5.045780,-0.724999,-0.354456,-0.724999,-0.334981,-0.665718,
-0.271331,-0.335560,-0.250000,0.000000,-0.257946,0.125000,-5.252525,0.125000,-5.252525,0.475000,-0.298213,0.475000,-0.334981,0.665718,-0.439926,0.985159,-0.584476,1.288739,-0.607787,1.325000,-4.618829,1.325000,-4.618829,1.675000,-0.853123,1.675000,-0.982482,1.829104,-1.229530,2.057190,-1.503471,2.252156,-1.799896,2.410865,-2.114031,2.530761,-2.440819,2.609914,-2.775000,2.647050,
-2.774999,3.147518,-2.375506,3.106027,-2.375506,3.106027,$1*%
%AMFreePoly14*
4,1,58,2.224999,2.096276,1.962689,2.063974,1.706513,1.998981,1.460530,1.902325,1.228635,1.775539,1.089658,1.675000,3.135413,1.675000,3.135413,1.325000,0.726050,1.325000,0.652749,1.236664,0.510860,1.013689,0.398102,0.774658,0.316260,0.523358,0.307015,0.475000,4.137980,0.475000,4.137980,0.125000,0.257881,0.125000,0.250000,0.000000,0.266630,-0.263768,0.316260,-0.523358,
0.381929,-0.724999,3.855614,-0.724999,3.855614,-1.075000,0.549875,-1.075000,0.652749,-1.236664,0.821520,-1.440052,1.014501,-1.620630,1.228635,-1.775539,1.460530,-1.902325,1.706513,-1.998981,1.962689,-2.063974,2.225000,-2.096276,2.225000,-2.596993,1.897351,-2.560294,1.576981,-2.482426,1.269041,-2.364641,0.978483,-2.208833,0.709979,-2.017506,0.467846,-1.793739,0.255979,-1.541128,
0.077782,-1.263736,-0.063876,-0.966023,-0.166720,-0.652776,-0.229096,-0.329033,-0.250000,0.000000,-0.229096,0.329033,-0.166720,0.652776,-0.063876,0.966023,0.077782,1.263736,0.255979,1.541128,0.467846,1.793739,0.709979,2.017506,0.978483,2.208833,1.269041,2.364641,1.576981,2.482426,1.897351,2.560294,2.224999,2.596993,2.224999,2.096276,2.224999,2.096276,$1*%
%AMFreePoly15*
4,1,58,-1.897351,2.560294,-1.576981,2.482426,-1.269041,2.364641,-0.978483,2.208833,-0.709979,2.017506,-0.467846,1.793739,-0.255979,1.541128,-0.077782,1.263736,0.063876,0.966023,0.166720,0.652776,0.229096,0.329033,0.250000,0.000000,0.229096,-0.329033,0.166720,-0.652776,0.063876,-0.966023,-0.077782,-1.263736,-0.255979,-1.541128,-0.467846,-1.793739,-0.709979,-2.017506,-0.978483,-2.208833,
-1.269041,-2.364641,-1.576981,-2.482426,-1.897351,-2.560294,-2.225000,-2.596993,-2.225000,-2.096276,-1.962689,-2.063974,-1.706513,-1.998981,-1.460530,-1.902325,-1.228635,-1.775539,-1.089658,-1.675000,-3.135413,-1.675000,-3.135413,-1.325000,-0.726050,-1.325000,-0.652749,-1.236664,-0.510860,-1.013689,-0.398102,-0.774658,-0.316260,-0.523358,-0.307014,-0.474999,-4.137980,-0.474999,-4.137980,-0.124999,
-0.257881,-0.124999,-0.250000,0.000000,-0.266630,0.263768,-0.316260,0.523358,-0.381930,0.725000,-3.855614,0.725000,-3.855614,1.075000,-0.549875,1.075000,-0.652749,1.236664,-0.821520,1.440052,-1.014501,1.620630,-1.228635,1.775539,-1.460530,1.902325,-1.706513,1.998981,-1.962689,2.063974,-2.224999,2.096276,-2.224999,2.596993,-1.897351,2.560294,-1.897351,2.560294,$1*%
%AMFreePoly16*
4,1,61,2.520000,2.391735,2.219136,2.356833,1.925083,2.284238,1.642544,2.175111,1.376038,2.031197,1.297599,1.974999,3.481899,1.974999,3.481899,1.624999,0.888016,1.624999,0.713650,1.416302,0.550341,1.161219,0.420533,0.887565,0.383682,0.774999,4.645099,0.774999,4.645099,0.424999,0.292731,0.424999,0.269151,0.302275,0.250000,0.000000,0.269151,-0.302275,0.292731,-0.425000,
4.645099,-0.425000,4.645099,-0.775000,0.383683,-0.775000,0.420533,-0.887565,0.550341,-1.161219,0.713650,-1.416302,0.888017,-1.625000,3.481899,-1.625000,3.481899,-1.975000,1.297600,-1.975000,1.376038,-2.031197,1.642544,-2.175111,1.925083,-2.284238,2.219136,-2.356833,2.520000,-2.391735,2.519999,-2.892300,2.153814,-2.853026,1.795577,-2.767581,1.451087,-2.637346,1.125918,-2.464430,
0.825334,-2.251631,0.554198,-2.002392,0.316899,-1.720747,0.117277,-1.411255,-0.041437,-1.078924,-0.156676,-0.729132,-0.226574,-0.367540,-0.250000,0.000000,-0.226574,0.367540,-0.156676,0.729132,-0.041437,1.078924,0.117277,1.411255,0.316899,1.720747,0.554198,2.002392,0.825334,2.251631,1.125918,2.464430,1.451087,2.637346,1.795577,2.767581,2.153814,2.853026,2.519999,2.892300,
2.520000,2.391735,2.520000,2.391735,$1*%
%AMFreePoly17*
4,1,60,-2.153814,2.853026,-1.795577,2.767581,-1.451087,2.637346,-1.125918,2.464430,-0.825334,2.251631,-0.554198,2.002392,-0.316899,1.720747,-0.117277,1.411255,0.041437,1.078924,0.156676,0.729132,0.226574,0.367540,0.250000,0.000000,0.226574,-0.367540,0.156676,-0.729132,0.041437,-1.078924,-0.117277,-1.411255,-0.316899,-1.720747,-0.554198,-2.002392,-0.825334,-2.251631,-1.125918,-2.464430,
-1.451087,-2.637346,-1.795577,-2.767581,-2.153814,-2.853026,-2.519999,-2.892300,-2.520000,-2.391735,-2.219136,-2.356833,-1.925083,-2.284238,-1.642544,-2.175111,-1.376038,-2.031197,-1.129826,-1.854797,-0.907847,-1.648734,-0.713650,-1.416302,-0.687208,-1.375000,-4.291329,-1.375000,-4.291329,-1.025000,-0.485725,-1.025000,-0.420533,-0.887565,-0.326300,-0.599715,-0.269151,-0.302275,-0.261087,-0.175000,
-4.782849,-0.175000,-4.782849,0.174999,-0.261087,0.174999,-0.269151,0.302275,-0.326300,0.599715,-0.420533,0.887565,-0.485725,1.024999,-4.291329,1.024999,-4.291329,1.374999,-0.687207,1.374999,-0.713650,1.416302,-0.907847,1.648734,-1.129826,1.854797,-1.376038,2.031197,-1.642544,2.175111,-1.925083,2.284238,-2.219136,2.356833,-2.520000,2.391735,-2.519999,2.892300,-2.153814,2.853026,
-2.153814,2.853026,$1*%
%AMFreePoly18*
4,1,62,2.739999,2.612010,2.410391,2.575180,2.088096,2.496927,1.778298,2.378508,1.585181,2.275000,3.511219,2.275000,3.511219,1.925000,1.102830,1.925000,0.972237,1.804348,0.759076,1.550261,0.579790,1.271237,0.486396,1.075000,4.971561,1.075000,4.971561,0.725000,0.356232,0.725000,0.333790,0.656659,0.271032,0.330991,0.250000,0.000000,0.257943,-0.124999,5.181808,-0.124999,
5.181808,-0.474999,0.298783,-0.474999,0.333790,-0.656659,0.437264,-0.971764,0.579790,-1.271237,0.614335,-1.325000,4.534610,-1.325000,4.534610,-1.675000,0.863723,-1.675000,0.972237,-1.804348,1.215844,-2.029411,1.485980,-2.221830,1.778298,-2.378508,2.088096,-2.496927,2.410391,-2.575180,2.740000,-2.612010,2.740000,-3.112490,2.345078,-3.071303,1.958604,-2.980213,1.586857,-2.840699,
1.235878,-2.655030,0.911369,-2.426221,0.618602,-2.157990,0.362336,-1.854696,0.146734,-1.521267,-0.024701,-1.163120,-0.149185,-0.786074,-0.224693,-0.396256,-0.250000,0.000000,-0.224693,0.396256,-0.149185,0.786074,-0.024701,1.163120,0.146734,1.521267,0.362336,1.854696,0.618602,2.157990,0.911369,2.426221,1.235878,2.655030,1.586857,2.840699,1.958604,2.980213,2.345078,3.071303,
2.739999,3.112490,2.739999,2.612010,2.739999,2.612010,$1*%
%AMFreePoly19*
4,1,62,-2.345078,3.071303,-1.958604,2.980213,-1.586857,2.840699,-1.235878,2.655030,-0.911369,2.426221,-0.618602,2.157990,-0.362336,1.854696,-0.146734,1.521267,0.024701,1.163120,0.149185,0.786074,0.224693,0.396256,0.250000,0.000000,0.224693,-0.396256,0.149185,-0.786074,0.024701,-1.163120,-0.146734,-1.521267,-0.362336,-1.854696,-0.618602,-2.157990,-0.911369,-2.426221,-1.235878,-2.655030,
-1.586857,-2.840699,-1.958604,-2.980213,-2.345078,-3.071303,-2.740000,-3.112490,-2.740000,-2.612010,-2.410391,-2.575180,-2.088096,-2.496927,-1.778298,-2.378508,-1.585181,-2.275000,-3.511219,-2.275000,-3.511219,-1.925000,-1.102830,-1.925000,-0.972237,-1.804348,-0.759076,-1.550261,-0.579790,-1.271237,-0.486396,-1.075000,-4.971561,-1.075000,-4.971561,-0.724999,-0.356231,-0.724999,-0.333790,-0.656659,
-0.271032,-0.330991,-0.250000,0.000000,-0.257943,0.125000,-5.181808,0.125000,-5.181808,0.475000,-0.298783,0.475000,-0.333790,0.656659,-0.437264,0.971764,-0.579790,1.271237,-0.614335,1.325000,-4.534610,1.325000,-4.534610,1.675000,-0.863723,1.675000,-0.972237,1.804348,-1.215844,2.029411,-1.485980,2.221830,-1.778298,2.378508,-2.088096,2.496927,-2.410391,2.575180,-2.739999,2.612010,
-2.739999,3.112490,-2.345078,3.071303,-2.345078,3.071303,$1*%
G04 Aperture macros list end*
%ADD10FreePoly0,0.000000*%
%ADD11FreePoly1,0.000000*%
%ADD12FreePoly2,0.000000*%
%ADD13FreePoly3,0.000000*%
%ADD14FreePoly4,0.000000*%
%ADD15FreePoly5,0.000000*%
%ADD16FreePoly6,0.000000*%
%ADD17FreePoly7,0.000000*%
%ADD18C,6.000000*%
%ADD19FreePoly8,0.000000*%
%ADD20FreePoly9,0.000000*%
%ADD21C,5.500000*%
%ADD22C,5.000000*%
%ADD23FreePoly10,0.000000*%
%ADD24FreePoly11,0.000000*%
%ADD25FreePoly12,0.000000*%
%ADD26FreePoly13,0.000000*%
%ADD27FreePoly14,0.000000*%
%ADD28FreePoly15,0.000000*%
%ADD29FreePoly16,0.000000*%
%ADD30FreePoly17,0.000000*%
%ADD31C,4.800000*%
%ADD32FreePoly18,0.000000*%
%ADD33FreePoly19,0.000000*%
G04 APERTURE END LIST*
%LPC*%
D10*
%TO.C,K15*%
X138840000Y-83490000D03*
D11*
X144740000Y-83490000D03*
%TD*%
D10*
%TO.C,K10*%
X127600000Y-74330000D03*
D11*
X133500000Y-74330000D03*
%TD*%
D10*
%TO.C,K39*%
X158260000Y-125000000D03*
D11*
X164160000Y-125000000D03*
%TD*%
D12*
%TO.C,K5*%
X145450000Y-60650000D03*
D13*
X149450000Y-60650000D03*
%TD*%
D10*
%TO.C,K29*%
X161840000Y-102250000D03*
D11*
X167740000Y-102250000D03*
%TD*%
D10*
%TO.C,K34*%
X158300000Y-113479999D03*
D11*
X164200000Y-113479999D03*
%TD*%
D10*
%TO.C,K11*%
X162110000Y-73900000D03*
D11*
X168010000Y-73900000D03*
%TD*%
D14*
%TO.C,K18*%
X173800000Y-83110000D03*
D15*
X179520000Y-83110000D03*
%TD*%
D16*
%TO.C,K6*%
X136810000Y-66010000D03*
D17*
X141110000Y-66010000D03*
%TD*%
D10*
%TO.C,K50*%
X172440000Y-147560000D03*
D11*
X178340000Y-147560000D03*
%TD*%
D18*
%TO.C,H6*%
X171280000Y-68020000D03*
%TD*%
D10*
%TO.C,K21*%
X138840000Y-92789999D03*
D11*
X144740000Y-92789999D03*
%TD*%
D10*
%TO.C,K49*%
X158160000Y-147700000D03*
D11*
X164060000Y-147700000D03*
%TD*%
D10*
%TO.C,K14*%
X127600000Y-83610000D03*
D11*
X133500000Y-83610000D03*
%TD*%
D10*
%TO.C,K33*%
X144510000Y-113650000D03*
D11*
X150410000Y-113650000D03*
%TD*%
D10*
%TO.C,K16*%
X150510000Y-83250000D03*
D11*
X156410000Y-83250000D03*
%TD*%
D10*
%TO.C,K30*%
X173610000Y-102580000D03*
D11*
X179510000Y-102580000D03*
%TD*%
D10*
%TO.C,K40*%
X172420000Y-125020000D03*
D11*
X178320000Y-125020000D03*
%TD*%
D10*
%TO.C,K47*%
X130740000Y-147560000D03*
D11*
X136640000Y-147560000D03*
%TD*%
D19*
%TO.C,K8*%
X145450000Y-71670000D03*
D20*
X149850000Y-71670000D03*
%TD*%
D10*
%TO.C,K27*%
X138740000Y-102150000D03*
D11*
X144640000Y-102150000D03*
%TD*%
D10*
%TO.C,K46*%
X117430000Y-147560000D03*
D11*
X123330000Y-147560000D03*
%TD*%
D10*
%TO.C,K1*%
X116790000Y-62070000D03*
D11*
X122690000Y-62070000D03*
%TD*%
D18*
%TO.C,H4*%
X168530000Y-141680000D03*
%TD*%
D10*
%TO.C,K37*%
X130730000Y-124610000D03*
D11*
X136630000Y-124610000D03*
%TD*%
D10*
%TO.C,K20*%
X127529999Y-92850000D03*
D11*
X133429999Y-92850000D03*
%TD*%
D10*
%TO.C,K26*%
X127600000Y-102020000D03*
D11*
X133500000Y-102020000D03*
%TD*%
D10*
%TO.C,K23*%
X161980000Y-92720000D03*
D11*
X167880000Y-92720000D03*
%TD*%
D10*
%TO.C,K44*%
X158170000Y-136440000D03*
D11*
X164070000Y-136440000D03*
%TD*%
D10*
%TO.C,K45*%
X172440000Y-136130000D03*
D11*
X178340000Y-136130000D03*
%TD*%
D10*
%TO.C,K31*%
X117430000Y-113120000D03*
D11*
X123330000Y-113120000D03*
%TD*%
D10*
%TO.C,K42*%
X130740000Y-135870000D03*
D11*
X136640000Y-135870000D03*
%TD*%
D21*
%TO.C,H1*%
X123270000Y-68620000D03*
%TD*%
D10*
%TO.C,K17*%
X162070000Y-83150000D03*
D11*
X167970000Y-83150000D03*
%TD*%
D18*
%TO.C,H3*%
X127270000Y-141780000D03*
%TD*%
D22*
%TO.C,H2*%
X127020000Y-107280000D03*
%TD*%
D10*
%TO.C,K43*%
X144379999Y-136079999D03*
D11*
X150279999Y-136079999D03*
%TD*%
D23*
%TO.C,K4*%
X174260000Y-60820000D03*
D24*
X179560000Y-60820000D03*
%TD*%
D25*
%TO.C,K2*%
X126600000Y-61940000D03*
D26*
X132400000Y-61940000D03*
%TD*%
D27*
%TO.C,K7*%
X154290000Y-65819999D03*
D28*
X158990000Y-65819999D03*
%TD*%
D10*
%TO.C,K36*%
X117430000Y-124860000D03*
D11*
X123330000Y-124860000D03*
%TD*%
D10*
%TO.C,K41*%
X117430000Y-136130000D03*
D11*
X123330000Y-136130000D03*
%TD*%
D10*
%TO.C,K13*%
X116500000Y-83700000D03*
D11*
X122400000Y-83700000D03*
%TD*%
D10*
%TO.C,K28*%
X150260000Y-102250000D03*
D11*
X156160000Y-102250000D03*
%TD*%
D29*
%TO.C,K3*%
X163765000Y-61150000D03*
D30*
X169055000Y-61150000D03*
%TD*%
D31*
%TO.C,H5*%
X168420000Y-107530000D03*
%TD*%
D10*
%TO.C,K9*%
X116290000Y-74210000D03*
D11*
X122190000Y-74210000D03*
%TD*%
D25*
%TO.C,K12*%
X173440000Y-73900000D03*
D26*
X179240000Y-73900000D03*
%TD*%
D10*
%TO.C,K25*%
X116120000Y-101979999D03*
D11*
X122020000Y-101979999D03*
%TD*%
D10*
%TO.C,K35*%
X172460000Y-113590000D03*
D11*
X178360000Y-113590000D03*
%TD*%
D10*
%TO.C,K32*%
X130740000Y-113289999D03*
D11*
X136640000Y-113289999D03*
%TD*%
D10*
%TO.C,K19*%
X116270000Y-92720000D03*
D11*
X122170000Y-92720000D03*
%TD*%
D10*
%TO.C,K48*%
X144440000Y-147430000D03*
D11*
X150340000Y-147430000D03*
%TD*%
D32*
%TO.C,K24*%
X173795000Y-92500000D03*
D33*
X179525000Y-92500000D03*
%TD*%
D10*
%TO.C,K22*%
X150520000Y-92740000D03*
D11*
X156420000Y-92740000D03*
%TD*%
D10*
%TO.C,K38*%
X144460000Y-124800000D03*
D11*
X150360000Y-124800000D03*
%TD*%
%LPD*%
M02*
