%TF.GenerationSoftware,KiCad,Pcbnew,7.0.11+dfsg-1build4*%
%TF.CreationDate,2026-09-29T23:48:06+00:00*%
%TF.ProjectId,tastatur,74617374-6174-4757-922e-6b696361645f,rev?*%
%TF.SameCoordinates,Original*%
%TF.FileFunction,Copper,L2,Bot*%
%TF.FilePolarity,Positive*%
%FSLAX46Y46*%
G04 Gerber Fmt 4.6, Leading zero omitted, Abs format (unit mm)*
G04 Created by KiCad (PCBNEW 7.0.11+dfsg-1build4) date 2026-09-29 23:48:06*
%MOMM*%
%LPD*%
G01*
G04 APERTURE LIST*
G04 Aperture macros list*
%AMRoundRect*
0 Rectangle with rounded corners*
0 $1 Rounding radius*
0 $2 $3 $4 $5 $6 $7 $8 $9 X,Y pos of 4 corners*
0 Add a 4 corners polygon primitive as box body*
4,1,4,$2,$3,$4,$5,$6,$7,$8,$9,$2,$3,0*
0 Add four circle primitives for the rounded corners*
1,1,$1+$1,$2,$3*
1,1,$1+$1,$4,$5*
1,1,$1+$1,$6,$7*
1,1,$1+$1,$8,$9*
0 Add four rect primitives between the rounded corners*
20,1,$1+$1,$2,$3,$4,$5,0*
20,1,$1+$1,$4,$5,$6,$7,0*
20,1,$1+$1,$6,$7,$8,$9,0*
20,1,$1+$1,$8,$9,$2,$3,0*%
G04 Aperture macros list end*
%TA.AperFunction,SMDPad,CuDef*%
%ADD10RoundRect,0.550000X-0.550000X-0.950000X0.550000X-0.950000X0.550000X0.950000X-0.550000X0.950000X0*%
%TD*%
%TA.AperFunction,SMDPad,CuDef*%
%ADD11RoundRect,0.250000X-0.400000X-0.250000X0.400000X-0.250000X0.400000X0.250000X-0.400000X0.250000X0*%
%TD*%
%TA.AperFunction,SMDPad,CuDef*%
%ADD12RoundRect,0.150000X-0.150000X-0.850000X0.150000X-0.850000X0.150000X0.850000X-0.150000X0.850000X0*%
%TD*%
%TA.AperFunction,ViaPad*%
%ADD13C,0.600000*%
%TD*%
%TA.AperFunction,Conductor*%
%ADD14C,0.250000*%
%TD*%
G04 APERTURE END LIST*
D10*
%TO.P,J1,1*%
%TO.N,3V3*%
X140725000Y-61000000D03*
%TO.P,J1,2*%
%TO.N,GND*%
X144225000Y-61000000D03*
%TO.P,J1,3*%
%TO.N,SDA*%
X147725000Y-61000000D03*
%TO.P,J1,4*%
%TO.N,SCL*%
X151225000Y-61000000D03*
%TO.P,J1,5*%
%TO.N,INT*%
X154725000Y-61000000D03*
%TD*%
D11*
%TO.P,R2,1*%
%TO.N,3V3*%
X132725000Y-80950000D03*
%TO.P,R2,2*%
%TO.N,SCL*%
X132725000Y-79050000D03*
%TD*%
%TO.P,R1,1*%
%TO.N,3V3*%
X135225000Y-80950000D03*
%TO.P,R1,2*%
%TO.N,SDA*%
X135225000Y-79050000D03*
%TD*%
D12*
%TO.P,U1,1*%
%TO.N,R1*%
X139470000Y-75350000D03*
%TO.P,U1,2*%
%TO.N,R2*%
X140740000Y-75350000D03*
%TO.P,U1,3*%
%TO.N,R3*%
X142010000Y-75350000D03*
%TO.P,U1,4*%
%TO.N,R4*%
X143280000Y-75350000D03*
%TO.P,U1,5*%
%TO.N,R5*%
X144550000Y-75350000D03*
%TO.P,U1,6*%
%TO.N,R6*%
X145820000Y-75350000D03*
%TO.P,U1,7*%
%TO.N,R7*%
X147090000Y-75350000D03*
%TO.P,U1,8*%
%TO.N,R8*%
X148359999Y-75350000D03*
%TO.P,U1,9*%
%TO.N,3V3*%
X149629999Y-75350000D03*
%TO.P,U1,10*%
%TO.N,GND*%
X150899999Y-75350000D03*
%TO.P,U1,11*%
%TO.N,N/C*%
X152169999Y-75350000D03*
%TO.P,U1,12*%
%TO.N,SCL*%
X153440000Y-75350000D03*
%TO.P,U1,13*%
%TO.N,SDA*%
X154709999Y-75350000D03*
%TO.P,U1,14*%
%TO.N,N/C*%
X155980000Y-75350000D03*
%TO.P,U1,15*%
%TO.N,GND*%
X155980000Y-84650000D03*
%TO.P,U1,16*%
X154710000Y-84650000D03*
%TO.P,U1,17*%
X153440000Y-84650000D03*
%TO.P,U1,18*%
%TO.N,3V3*%
X152170000Y-84650000D03*
%TO.P,U1,19*%
%TO.N,N/C*%
X150900000Y-84650000D03*
%TO.P,U1,20*%
%TO.N,INT*%
X149630000Y-84650000D03*
%TO.P,U1,21*%
%TO.N,C0*%
X148360000Y-84650000D03*
%TO.P,U1,22*%
%TO.N,C1*%
X147090001Y-84650000D03*
%TO.P,U1,23*%
%TO.N,C2*%
X145820001Y-84650000D03*
%TO.P,U1,24*%
%TO.N,C3*%
X144550001Y-84650000D03*
%TO.P,U1,25*%
%TO.N,C4*%
X143280001Y-84650000D03*
%TO.P,U1,26*%
%TO.N,C5*%
X142010000Y-84650000D03*
%TO.P,U1,27*%
%TO.N,C6*%
X140740001Y-84650000D03*
%TO.P,U1,28*%
%TO.N,R0*%
X139470000Y-84650000D03*
%TD*%
D11*
%TO.P,C1,1*%
%TO.N,3V3*%
X160225000Y-80950000D03*
%TO.P,C1,2*%
%TO.N,GND*%
X160225000Y-79050000D03*
%TD*%
D13*
%TO.N,SDA*%
X136656000Y-77913900D03*
X145565700Y-64578300D03*
%TO.N,SCL*%
X145532200Y-67045000D03*
X138366500Y-78100700D03*
%TO.N,R0*%
X163765000Y-58969600D03*
X135328900Y-77964100D03*
X173470100Y-60820000D03*
%TO.N,R1*%
X144117000Y-72534900D03*
X126813300Y-75116700D03*
X120954700Y-77734500D03*
X163651800Y-68340200D03*
X160689800Y-75169200D03*
X153435500Y-77503300D03*
%TO.N,R2*%
X140455700Y-78382500D03*
X161273000Y-83018900D03*
X121145200Y-80159100D03*
X126834200Y-83411900D03*
X173010100Y-83110000D03*
X153616000Y-88213400D03*
%TO.N,R3*%
X150399700Y-90531800D03*
X173002600Y-92500000D03*
X138840000Y-90384200D03*
X116270000Y-95208300D03*
X161980000Y-90424500D03*
X141041700Y-77178100D03*
X127530000Y-95175100D03*
%TO.N,R4*%
X137756400Y-101827300D03*
X172826700Y-102128700D03*
X120776300Y-98435400D03*
X161035100Y-101566000D03*
X126832500Y-102819300D03*
X137756400Y-80440700D03*
%TO.N,R5*%
X117430000Y-115521800D03*
X171707500Y-114110700D03*
X144510000Y-115956400D03*
X130398000Y-115979500D03*
X157545900Y-114110700D03*
X143778000Y-76794700D03*
%TO.N,R6*%
X144448400Y-122507500D03*
X130468600Y-121275900D03*
X171649000Y-125791000D03*
X157474600Y-125785400D03*
X134163500Y-69958000D03*
X122071300Y-121275900D03*
%TO.N,R7*%
X148986500Y-79172400D03*
X144145100Y-134006100D03*
X171684700Y-135374700D03*
X157404600Y-135674500D03*
X130394299Y-133835500D03*
X117430000Y-133795700D03*
%TO.N,R8*%
X129983800Y-147972300D03*
X148188400Y-77572200D03*
X117430000Y-149996000D03*
%TO.N,C0*%
X122400000Y-88422300D03*
X148827400Y-83186200D03*
X148827400Y-89507300D03*
%TO.N,C1*%
X132400000Y-64207400D03*
%TO.N,C2*%
X144740000Y-80457000D03*
X141110000Y-68640000D03*
%TO.N,C3*%
X150476400Y-86479700D03*
%TO.N,C4*%
X159335400Y-83651400D03*
%TO.N,C5*%
X168318100Y-88898500D03*
%TO.N,C6*%
X179512000Y-69935500D03*
%TD*%
D14*
%TO.N,GND*%
X155980000Y-84650000D02*
X154710000Y-84650000D01*
X154515400Y-79050000D02*
X160225000Y-79050000D01*
X150900000Y-75854300D02*
X154095700Y-79050000D01*
X154515400Y-84650000D02*
X153440000Y-84650000D01*
X154095700Y-79050000D02*
X154515400Y-79050000D01*
X150900000Y-73358100D02*
X144225000Y-66683099D01*
X150900000Y-75350000D02*
X150900000Y-75854300D01*
X154515400Y-84650000D02*
X154515400Y-79050000D01*
X150900000Y-75350000D02*
X150900000Y-73358100D01*
X154710000Y-84650000D02*
X154515400Y-84650000D01*
X144225000Y-66683099D02*
X144225000Y-61000000D01*
%TO.N,3V3*%
X152170000Y-84650000D02*
X152170000Y-80830200D01*
X149630000Y-78290200D02*
X149630000Y-75350000D01*
X135225000Y-80950000D02*
X132725000Y-80950000D01*
X149630000Y-73007400D02*
X140725000Y-64102400D01*
X143915000Y-85694000D02*
X143915000Y-83601100D01*
X143915000Y-83601100D02*
X142053300Y-81739400D01*
X152170000Y-84650000D02*
X152170000Y-85887700D01*
X156708300Y-84466700D02*
X156708300Y-85628200D01*
X149630000Y-75350000D02*
X149630000Y-73007400D01*
X136014400Y-81739400D02*
X135225000Y-80950000D01*
X142053300Y-81739400D02*
X136014400Y-81739400D01*
X152170000Y-80830200D02*
X149630000Y-78290200D01*
X156708300Y-85628200D02*
X156318600Y-86017900D01*
X156318600Y-86017900D02*
X152300200Y-86017900D01*
X140725000Y-64102400D02*
X140725000Y-61000000D01*
X145328700Y-87107700D02*
X143915000Y-85694000D01*
X160225000Y-80950000D02*
X156708300Y-84466700D01*
X152300200Y-86017900D02*
X152170000Y-85887700D01*
X152170000Y-85887700D02*
X150950000Y-87107700D01*
X150950000Y-87107700D02*
X145328700Y-87107700D01*
%TO.N,SDA*%
X147725000Y-61000000D02*
X147725000Y-63429300D01*
X136656000Y-77913900D02*
X135519900Y-79050000D01*
X153076300Y-76695000D02*
X152805200Y-76423900D01*
X135519900Y-79050000D02*
X135225000Y-79050000D01*
X145565700Y-64578300D02*
X146714700Y-63429300D01*
X146714700Y-63429300D02*
X147725000Y-63429300D01*
X152805200Y-68509500D02*
X147725000Y-63429300D01*
X153800100Y-76695000D02*
X153076300Y-76695000D01*
X154710000Y-75785100D02*
X153800100Y-76695000D01*
X154710000Y-75350000D02*
X154710000Y-75785100D01*
X152805200Y-76423900D02*
X152805200Y-68509500D01*
%TO.N,SCL*%
X133556199Y-79881200D02*
X132725000Y-79050000D01*
X138366500Y-78100700D02*
X136586000Y-79881200D01*
X153440000Y-63215000D02*
X151225000Y-61000000D01*
X145975000Y-59988300D02*
X145975000Y-62374000D01*
X144899700Y-63449300D02*
X144899700Y-66412499D01*
X149363400Y-59138400D02*
X146824900Y-59138400D01*
X153440000Y-75350000D02*
X153440000Y-63215000D01*
X145975000Y-62374000D02*
X144899700Y-63449300D01*
X136586000Y-79881200D02*
X133556199Y-79881200D01*
X146824900Y-59138400D02*
X145975000Y-59988300D01*
X144899700Y-66412499D02*
X145532200Y-67045000D01*
X151225000Y-61000000D02*
X149363400Y-59138400D01*
%TO.N,INT*%
X139231600Y-64118300D02*
X139231600Y-59742800D01*
X149630000Y-84650000D02*
X149630000Y-78929300D01*
X139231600Y-59742800D02*
X140287900Y-58686500D01*
X152411500Y-58686500D02*
X154725000Y-61000000D01*
X140287900Y-58686500D02*
X152411500Y-58686500D01*
X149630000Y-78929300D02*
X148993600Y-78292900D01*
X148993600Y-73880300D02*
X139231600Y-64118300D01*
X148993600Y-78292900D02*
X148993600Y-73880300D01*
%TO.N,R0*%
X131744000Y-81503300D02*
X131744000Y-78502100D01*
X165615400Y-60820000D02*
X163765000Y-58969600D01*
X173470100Y-60820000D02*
X165615400Y-60820000D01*
X132282000Y-77964100D02*
X135328900Y-77964100D01*
X134890700Y-84650000D02*
X131744000Y-81503300D01*
X139470000Y-84650000D02*
X134890700Y-84650000D01*
X131744000Y-78502100D02*
X132282000Y-77964100D01*
%TO.N,R1*%
X126813300Y-75116700D02*
X139236700Y-75116700D01*
X163651800Y-68340200D02*
X160689800Y-71302200D01*
X160689800Y-71302200D02*
X160689800Y-75169200D01*
X126813300Y-75116700D02*
X124195500Y-77734500D01*
X153435500Y-77503300D02*
X158355700Y-77503300D01*
X139470000Y-75350000D02*
X139470000Y-74826300D01*
X139470000Y-74826300D02*
X141761400Y-72534900D01*
X124195500Y-77734500D02*
X120954700Y-77734500D01*
X158355700Y-77503300D02*
X160689800Y-75169200D01*
X139236700Y-75116700D02*
X139470000Y-75350000D01*
X141761400Y-72534900D02*
X144117000Y-72534900D01*
%TO.N,R2*%
X140370400Y-78297200D02*
X140455700Y-78382500D01*
X161273000Y-83018900D02*
X161364100Y-83110000D01*
X140370400Y-75719600D02*
X140370400Y-77238500D01*
X156078500Y-88213400D02*
X153616000Y-88213400D01*
X140740000Y-75350000D02*
X140370400Y-75719600D01*
X161273000Y-83018900D02*
X156078500Y-88213400D01*
X123581400Y-80159100D02*
X121145200Y-80159100D01*
X140370400Y-77238500D02*
X140370400Y-78297200D01*
X126834200Y-83411900D02*
X126478500Y-83056100D01*
X132296100Y-77238500D02*
X126478500Y-83056100D01*
X161364100Y-83110000D02*
X173010100Y-83110000D01*
X126478500Y-83056100D02*
X123581400Y-80159100D01*
X140370400Y-77238500D02*
X132296100Y-77238500D01*
%TO.N,R3*%
X161980000Y-90424500D02*
X170927100Y-90424500D01*
X132320900Y-90384200D02*
X138840000Y-90384200D01*
X170927100Y-90424500D02*
X173002600Y-92500000D01*
X138987600Y-90531800D02*
X150399700Y-90531800D01*
X142010000Y-75350000D02*
X142010000Y-76209800D01*
X138840000Y-90384200D02*
X138987600Y-90531800D01*
X161872700Y-90531800D02*
X161980000Y-90424500D01*
X127530000Y-95175100D02*
X127496800Y-95208300D01*
X150399700Y-90531800D02*
X161872700Y-90531800D01*
X127530000Y-95175100D02*
X132320900Y-90384200D01*
X142010000Y-76209800D02*
X141041700Y-77178100D01*
X127496800Y-95208300D02*
X116270000Y-95208300D01*
%TO.N,R4*%
X125160200Y-102819300D02*
X120776300Y-98435400D01*
X143280000Y-76133000D02*
X141300500Y-78112500D01*
X160773800Y-101827300D02*
X161035100Y-101566000D01*
X143280000Y-75350000D02*
X143280000Y-76133000D01*
X137756400Y-101827300D02*
X160773800Y-101827300D01*
X127824500Y-101827300D02*
X137756400Y-101827300D01*
X141300500Y-78424300D02*
X139284100Y-80440700D01*
X161035100Y-101566000D02*
X172264000Y-101566000D01*
X141300500Y-78112500D02*
X141300500Y-78424300D01*
X172264000Y-101566000D02*
X172826700Y-102128700D01*
X126832500Y-102819300D02*
X127824500Y-101827300D01*
X126832500Y-102819300D02*
X125160200Y-102819300D01*
X139284100Y-80440700D02*
X137756400Y-80440700D01*
%TO.N,R5*%
X144510000Y-115956400D02*
X155700200Y-115956400D01*
X144550000Y-75350000D02*
X144550000Y-76022700D01*
X130398000Y-115979500D02*
X117887700Y-115979500D01*
X144550000Y-76022700D02*
X143778000Y-76794700D01*
X144486900Y-115979500D02*
X144510000Y-115956400D01*
X157545900Y-114110700D02*
X171707500Y-114110700D01*
X130398000Y-115979500D02*
X144486900Y-115979500D01*
X117887700Y-115979500D02*
X117430000Y-115521800D01*
X155700200Y-115956400D02*
X157545900Y-114110700D01*
%TO.N,R6*%
X144448400Y-122507500D02*
X154196700Y-122507500D01*
X145820000Y-72462100D02*
X141328500Y-67970600D01*
X130468600Y-121275900D02*
X131700200Y-122507500D01*
X131700200Y-122507500D02*
X144448400Y-122507500D01*
X136150900Y-67970600D02*
X134163500Y-69958000D01*
X145820000Y-75350000D02*
X145820000Y-72462100D01*
X157474600Y-125785400D02*
X171643400Y-125785400D01*
X130468600Y-121275900D02*
X122071300Y-121275900D01*
X154196700Y-122507500D02*
X157474600Y-125785400D01*
X141328500Y-67970600D02*
X136150900Y-67970600D01*
X171643400Y-125785400D02*
X171649000Y-125791000D01*
%TO.N,R7*%
X157404600Y-135674500D02*
X171384900Y-135674500D01*
X130394299Y-133835500D02*
X143974500Y-133835500D01*
X171384900Y-135674500D02*
X171684700Y-135374700D01*
X147090000Y-77400100D02*
X148862300Y-79172400D01*
X130394299Y-133835500D02*
X117469800Y-133835500D01*
X148862300Y-79172400D02*
X148986500Y-79172400D01*
X144145100Y-134006100D02*
X155736200Y-134006100D01*
X117469800Y-133835500D02*
X117430000Y-133795700D01*
X155736200Y-134006100D02*
X157404600Y-135674500D01*
X147090000Y-75350000D02*
X147090000Y-77400100D01*
X143974500Y-133835500D02*
X144145100Y-134006100D01*
%TO.N,R8*%
X117430000Y-149996000D02*
X127960100Y-149996000D01*
X148360000Y-77400600D02*
X148188400Y-77572200D01*
X148360000Y-75350000D02*
X148360000Y-77400600D01*
X127960100Y-149996000D02*
X129983800Y-147972300D01*
%TO.N,C0*%
X148360000Y-83653600D02*
X148827400Y-83186200D01*
X122400000Y-88422300D02*
X123485000Y-89507300D01*
X123485000Y-89507300D02*
X148827400Y-89507300D01*
X148360000Y-84650000D02*
X148360000Y-83653600D01*
%TO.N,C1*%
X146457000Y-84017000D02*
X147090000Y-84650000D01*
X132400000Y-64207400D02*
X138204400Y-64207400D01*
X138204400Y-64207400D02*
X146457000Y-72460000D01*
X146457000Y-72460000D02*
X146457000Y-84017000D01*
%TO.N,C2*%
X145187000Y-72717000D02*
X145187000Y-80457000D01*
X145820000Y-81090000D02*
X145187000Y-80457000D01*
X145187000Y-80457000D02*
X144740000Y-80457000D01*
X145820000Y-84650000D02*
X145820000Y-81090000D01*
X141110000Y-68640000D02*
X145187000Y-72717000D01*
%TO.N,C3*%
X144550000Y-85069800D02*
X144550000Y-84650000D01*
X145959900Y-86479700D02*
X144550000Y-85069800D01*
X150476400Y-86479700D02*
X145959900Y-86479700D01*
%TO.N,C4*%
X143280000Y-85698200D02*
X143280000Y-84650000D01*
X155409500Y-87577300D02*
X145159100Y-87577300D01*
X159335400Y-83651400D02*
X155409500Y-87577300D01*
X145159100Y-87577300D02*
X143280000Y-85698200D01*
%TO.N,C5*%
X142010000Y-85154600D02*
X142010000Y-84650000D01*
X145283800Y-88428400D02*
X142010000Y-85154600D01*
X168318100Y-88898500D02*
X153414300Y-88898500D01*
X153414300Y-88898500D02*
X152944200Y-88428400D01*
X152944200Y-88428400D02*
X145283800Y-88428400D01*
%TO.N,C6*%
X140740000Y-84650000D02*
X140740000Y-85133600D01*
X153398400Y-89525400D02*
X168577800Y-89525400D01*
X168577800Y-89525400D02*
X179512000Y-78591200D01*
X140740000Y-85133600D02*
X144486700Y-88880300D01*
X152753300Y-88880300D02*
X153398400Y-89525400D01*
X179512000Y-78591200D02*
X179512000Y-69935500D01*
X144486700Y-88880300D02*
X152753300Y-88880300D01*
%TD*%
M02*
