M48
; DRILL file {KiCad 7.0.11+dfsg-1build4} date Tue Sep 29 23:48:07 2026
; FORMAT={-:-/ absolute / metric / decimal}
; #@! TF.CreationDate,2026-09-29T23:48:07+00:00
; #@! TF.GenerationSoftware,Kicad,Pcbnew,7.0.11+dfsg-1build4
; #@! TF.FileFunction,Plated,1,2,PTH
FMAT,2
METRIC
; #@! TA.AperFunction,Plated,PTH,ViaDrill
T1C0.300
%
G90
G05
T1
X116.27Y-95.208
X117.43Y-115.522
X117.43Y-133.796
X117.43Y-149.996
X120.776Y-98.435
X120.955Y-77.734
X121.145Y-80.159
X122.071Y-121.276
X122.4Y-88.422
X126.813Y-75.117
X126.832Y-102.819
X126.834Y-83.412
X127.53Y-95.175
X129.984Y-147.972
X130.394Y-133.835
X130.398Y-115.98
X130.469Y-121.276
X132.4Y-64.207
X134.163Y-69.958
X135.329Y-77.964
X136.656Y-77.914
X137.756Y-80.441
X137.756Y-101.827
X138.367Y-78.101
X138.84Y-90.384
X140.456Y-78.382
X141.042Y-77.178
X141.11Y-68.64
X143.778Y-76.795
X144.117Y-72.535
X144.145Y-134.006
X144.448Y-122.507
X144.51Y-115.956
X144.74Y-80.457
X145.532Y-67.045
X145.566Y-64.578
X148.188Y-77.572
X148.827Y-83.186
X148.827Y-89.507
X148.987Y-79.172
X150.4Y-90.532
X150.476Y-86.48
X153.435Y-77.503
X153.616Y-88.213
X157.405Y-135.674
X157.475Y-125.785
X157.546Y-114.111
X159.335Y-83.651
X160.69Y-75.169
X161.035Y-101.566
X161.273Y-83.019
X161.98Y-90.424
X163.652Y-68.34
X163.765Y-58.97
X168.318Y-88.898
X171.649Y-125.791
X171.685Y-135.375
X171.707Y-114.111
X172.827Y-102.129
X173.003Y-92.5
X173.01Y-83.11
X173.47Y-60.82
X179.512Y-69.935
M30
