%TF.GenerationSoftware,KiCad,Pcbnew,7.0.11+dfsg-1build4*%
%TF.CreationDate,2026-09-29T23:48:06+00:00*%
%TF.ProjectId,tastatur,74617374-6174-4757-922e-6b696361645f,rev?*%
%TF.SameCoordinates,Original*%
%TF.FileFunction,Profile,NP*%
%FSLAX46Y46*%
G04 Gerber Fmt 4.6, Leading zero omitted, Abs format (unit mm)*
G04 Created by KiCad (PCBNEW 7.0.11+dfsg-1build4) date 2026-09-29 23:48:06*
%MOMM*%
%LPD*%
G01*
G04 APERTURE LIST*
%TA.AperFunction,Profile*%
%ADD10C,0.100000*%
%TD*%
G04 APERTURE END LIST*
D10*
X180500000Y-115349998D02*
X180550003Y-136400001D01*
X174049999Y-56250000D02*
X174500000Y-55899999D01*
X130250000Y-154300003D02*
X129850000Y-154050003D01*
X180199996Y-150900001D02*
X179500000Y-151849998D01*
X171700000Y-153599998D02*
X171349998Y-152500000D01*
X117150000Y-152949996D02*
X116250000Y-152199996D01*
X167650001Y-55899999D02*
X168150001Y-56050000D01*
X115100000Y-65500000D02*
X115000000Y-59000000D01*
X172450000Y-58849999D02*
X172599998Y-58599999D01*
X114899999Y-149949996D02*
X114750000Y-148900001D01*
X121800000Y-57500000D02*
X122449999Y-58450000D01*
X170500000Y-58950000D02*
X171849998Y-58950000D01*
X180400001Y-115049999D02*
X180500000Y-115349998D01*
X140149999Y-56000000D02*
X167650001Y-55899999D01*
X161849998Y-154349998D02*
X161500000Y-154449996D01*
X123000000Y-58849999D02*
X124949999Y-58950000D01*
X127800000Y-55899999D02*
X140149999Y-56000000D01*
X180550003Y-136400001D02*
X180699996Y-148900001D01*
X127300000Y-56050000D02*
X127800000Y-55899999D01*
X115000000Y-59000000D02*
X115050000Y-56800000D01*
X180550003Y-149949996D02*
X180199996Y-150900001D01*
X114899999Y-136400001D02*
X114949999Y-115349998D01*
X180050003Y-56000000D02*
X180400001Y-56800000D01*
X129050000Y-152050003D02*
X128550000Y-151500000D01*
X126949999Y-56500000D02*
X127300000Y-56050000D01*
X123199999Y-154099998D02*
X119050000Y-153699996D01*
X168849998Y-58650000D02*
X169900001Y-58650000D01*
X180349998Y-65500000D02*
X180400001Y-115049999D01*
X180449996Y-59000000D02*
X180349998Y-65500000D01*
X115349999Y-56050000D02*
X116000000Y-55799999D01*
X176400001Y-153699996D02*
X175750000Y-153699996D01*
X172599998Y-58599999D02*
X173049999Y-58400000D01*
X169549999Y-150949996D02*
X167900001Y-150949996D01*
X116000000Y-55799999D02*
X120949999Y-55899999D01*
X115050000Y-115049999D02*
X115100000Y-65500000D01*
X165000000Y-154349998D02*
X161849998Y-154349998D01*
X173049999Y-58400000D02*
X173049999Y-58250000D01*
X165599998Y-154050003D02*
X165000000Y-154349998D01*
X172250000Y-154099998D02*
X171700000Y-153599998D01*
X126649999Y-57450000D02*
X126949999Y-56500000D01*
X121400000Y-56250000D02*
X121800000Y-57500000D01*
X114949999Y-115349998D02*
X115050000Y-115049999D01*
X129600000Y-153599998D02*
X129449999Y-152800003D01*
X126649999Y-58599999D02*
X126649999Y-57450000D01*
X124649999Y-151750000D02*
X124100000Y-152500000D01*
X115949999Y-151849998D02*
X115250000Y-150900001D01*
X114750000Y-148900001D02*
X114899999Y-136400001D01*
X175650001Y-153800003D02*
X172250000Y-154099998D01*
X115250000Y-150900001D02*
X114899999Y-149949996D01*
X127550000Y-150949996D02*
X125899999Y-150949996D01*
X179449996Y-55799999D02*
X180050003Y-56000000D01*
X173650001Y-57500000D02*
X174049999Y-56250000D01*
X125550000Y-58650000D02*
X126649999Y-58599999D01*
X167900001Y-150949996D02*
X166900001Y-151500000D01*
X116250000Y-152199996D02*
X116000000Y-152150001D01*
X128550000Y-151500000D02*
X127550000Y-150949996D01*
X177599998Y-153400001D02*
X176400001Y-153699996D01*
X122449999Y-58450000D02*
X122849999Y-58599999D01*
X124949999Y-58950000D02*
X125550000Y-58650000D01*
X168150001Y-56050000D02*
X168500000Y-56500000D01*
X161500000Y-154449996D02*
X133950000Y-154449996D01*
X119050000Y-153699996D02*
X117750000Y-153349998D01*
X133600000Y-154349998D02*
X130250000Y-154300003D01*
X166000000Y-152800003D02*
X165849998Y-153599998D01*
X171849998Y-58950000D02*
X172450000Y-58849999D01*
X179199996Y-152199996D02*
X177599998Y-153400001D01*
X124100000Y-152500000D02*
X123750000Y-153599998D01*
X117750000Y-153349998D02*
X117700000Y-153199996D01*
X170599998Y-151550003D02*
X169549999Y-150949996D01*
X117700000Y-153199996D02*
X117150000Y-152949996D01*
X120949999Y-55899999D02*
X121400000Y-56250000D01*
X129449999Y-152800003D02*
X129050000Y-152050003D01*
X166650001Y-151750000D02*
X166000000Y-152800003D01*
X133950000Y-154449996D02*
X133600000Y-154349998D01*
X174500000Y-55899999D02*
X179449996Y-55799999D01*
X180699996Y-148900001D02*
X180550003Y-149949996D01*
X173049999Y-58250000D02*
X173650001Y-57500000D01*
X168500000Y-56500000D02*
X168799999Y-57450000D01*
X171349998Y-152500000D02*
X170599998Y-151550003D01*
X129850000Y-154050003D02*
X129600000Y-153599998D01*
X122849999Y-58599999D02*
X123000000Y-58849999D01*
X175750000Y-153699996D02*
X175650001Y-153800003D01*
X166900001Y-151500000D02*
X166650001Y-151750000D01*
X179449996Y-152150001D02*
X179199996Y-152199996D01*
X169900001Y-58650000D02*
X170500000Y-58950000D01*
X123750000Y-153599998D02*
X123199999Y-154099998D01*
X116000000Y-152150001D02*
X115949999Y-151849998D01*
X125899999Y-150949996D02*
X124649999Y-151750000D01*
X115050000Y-56800000D02*
X115349999Y-56050000D01*
X168799999Y-57450000D02*
X168849998Y-58650000D01*
X179500000Y-151849998D02*
X179449996Y-152150001D01*
X165849998Y-153599998D02*
X165599998Y-154050003D01*
X180400001Y-56800000D02*
X180449996Y-59000000D01*
M02*
