%TF.GenerationSoftware,KiCad,Pcbnew,7.0.11+dfsg-1build4*%
%TF.CreationDate,2026-09-29T23:48:06+00:00*%
%TF.ProjectId,tastatur,74617374-6174-4757-922e-6b696361645f,rev?*%
%TF.SameCoordinates,Original*%
%TF.FileFunction,Soldermask,Bot*%
%TF.FilePolarity,Negative*%
%FSLAX46Y46*%
G04 Gerber Fmt 4.6, Leading zero omitted, Abs format (unit mm)*
G04 Created by KiCad (PCBNEW 7.0.11+dfsg-1build4) date 2026-09-29 23:48:06*
%MOMM*%
%LPD*%
G01*
G04 APERTURE LIST*
G04 Aperture macros list*
%AMRoundRect*
0 Rectangle with rounded corners*
0 $1 Rounding radius*
0 $2 $3 $4 $5 $6 $7 $8 $9 X,Y pos of 4 corners*
0 Add a 4 corners polygon primitive as box body*
4,1,4,$2,$3,$4,$5,$6,$7,$8,$9,$2,$3,0*
0 Add four circle primitives for the rounded corners*
1,1,$1+$1,$2,$3*
1,1,$1+$1,$4,$5*
1,1,$1+$1,$6,$7*
1,1,$1+$1,$8,$9*
0 Add four rect primitives between the rounded corners*
20,1,$1+$1,$2,$3,$4,$5,0*
20,1,$1+$1,$4,$5,$6,$7,0*
20,1,$1+$1,$6,$7,$8,$9,0*
20,1,$1+$1,$8,$9,$2,$3,0*%
G04 Aperture macros list end*
%ADD10RoundRect,0.550000X-0.550000X-0.950000X0.550000X-0.950000X0.550000X0.950000X-0.550000X0.950000X0*%
%ADD11RoundRect,0.250000X-0.400000X-0.250000X0.400000X-0.250000X0.400000X0.250000X-0.400000X0.250000X0*%
%ADD12C,6.000000*%
%ADD13C,5.500000*%
%ADD14C,5.000000*%
%ADD15RoundRect,0.150000X-0.150000X-0.850000X0.150000X-0.850000X0.150000X0.850000X-0.150000X0.850000X0*%
%ADD16C,4.800000*%
G04 APERTURE END LIST*
D10*
%TO.C,J1*%
X140725000Y-61000000D03*
X144225000Y-61000000D03*
X147725000Y-61000000D03*
X151225000Y-61000000D03*
X154725000Y-61000000D03*
%TD*%
D11*
%TO.C,R2*%
X132725000Y-80950000D03*
X132725000Y-79050000D03*
%TD*%
D12*
%TO.C,H6*%
X171280000Y-68020000D03*
%TD*%
%TO.C,H4*%
X168530000Y-141680000D03*
%TD*%
D11*
%TO.C,R1*%
X135225000Y-80950000D03*
X135225000Y-79050000D03*
%TD*%
D13*
%TO.C,H1*%
X123270000Y-68620000D03*
%TD*%
D12*
%TO.C,H3*%
X127270000Y-141780000D03*
%TD*%
D14*
%TO.C,H2*%
X127020000Y-107280000D03*
%TD*%
D15*
%TO.C,U1*%
X139470000Y-75350000D03*
X140740000Y-75350000D03*
X142010000Y-75350000D03*
X143280000Y-75350000D03*
X144550000Y-75350000D03*
X145820000Y-75350000D03*
X147090000Y-75350000D03*
X148359999Y-75350000D03*
X149629999Y-75350000D03*
X150899999Y-75350000D03*
X152169999Y-75350000D03*
X153440000Y-75350000D03*
X154709999Y-75350000D03*
X155980000Y-75350000D03*
X155980000Y-84650000D03*
X154710000Y-84650000D03*
X153440000Y-84650000D03*
X152170000Y-84650000D03*
X150900000Y-84650000D03*
X149630000Y-84650000D03*
X148360000Y-84650000D03*
X147090001Y-84650000D03*
X145820001Y-84650000D03*
X144550001Y-84650000D03*
X143280001Y-84650000D03*
X142010000Y-84650000D03*
X140740001Y-84650000D03*
X139470000Y-84650000D03*
%TD*%
D16*
%TO.C,H5*%
X168420000Y-107530000D03*
%TD*%
D11*
%TO.C,C1*%
X160225000Y-80950000D03*
X160225000Y-79050000D03*
%TD*%
M02*
